<svg width="29" height="29" viewBox="0 0 29 29" fill="none" xmlns="http://www.w3.org/2000/svg">
<path d="M19.3332 0.333984C20.0696 0.333984 20.6665 0.930938 20.6665 1.66732V3.00065H27.3332V11.0007H24.6411L28.3026 21.0604C28.5375 21.6617 28.6665 22.3161 28.6665 23.0007C28.6665 25.9462 26.2787 28.334 23.3332 28.334C20.8481 28.334 18.7599 26.6343 18.1679 24.334H12.4985C11.9064 26.6343 9.81829 28.334 7.33317 28.334C4.74051 28.334 2.57994 26.484 2.09949 24.0321C1.24779 23.5868 0.666504 22.695 0.666504 21.6673V8.33398C0.666504 7.5976 1.26346 7.00065 1.99984 7.00065H11.3332C12.0696 7.00065 12.6665 7.5976 12.6665 8.33398V15.0007C12.6665 15.737 13.2635 16.334 13.9998 16.334H16.6665C17.4029 16.334 17.9998 15.737 17.9998 15.0007V3.00065H13.9998V0.333984H19.3332ZM23.3332 20.334C21.8604 20.334 20.6665 21.5279 20.6665 23.0007C20.6665 24.4734 21.8604 25.6673 23.3332 25.6673C24.8059 25.6673 25.9998 24.4734 25.9998 23.0007C25.9998 22.6802 25.9433 22.373 25.8397 22.0883L25.8179 22.0305C25.4299 21.0375 24.4637 20.334 23.3332 20.334ZM7.33317 20.334C5.86041 20.334 4.6665 21.5279 4.6665 23.0007C4.6665 24.4734 5.86041 25.6673 7.33317 25.6673C8.80593 25.6673 9.99984 24.4734 9.99984 23.0007C9.99984 21.5279 8.80593 20.334 7.33317 20.334ZM9.99984 9.66732H3.33317V12.334H9.99984V9.66732ZM24.6665 5.66732H20.6665V8.33398H24.6665V5.66732Z" fill="#042C5B"/>
</svg>
