<svg width="24" height="28" viewBox="0 0 24 28" fill="none" xmlns="http://www.w3.org/2000/svg">
<path d="M18.6667 19.3327H21.3333V3.33268H8V5.99935H18.6667V19.3327ZM18.6667 21.9993V25.9993C18.6667 26.7353 18.0667 27.3327 17.324 27.3327H1.34267C1.16684 27.3337 0.99253 27.3 0.829763 27.2335C0.666997 27.167 0.518978 27.069 0.394211 26.9451C0.269445 26.8212 0.170391 26.6738 0.102739 26.5115C0.0350875 26.3493 0.000172499 26.1752 0 25.9993L0.00400003 7.33268C0.00400003 6.59668 0.604 5.99935 1.34667 5.99935H5.33333V1.99935C5.33333 1.64573 5.47381 1.30659 5.72386 1.05654C5.97391 0.806491 6.31305 0.666016 6.66667 0.666016H22.6667C23.0203 0.666016 23.3594 0.806491 23.6095 1.05654C23.8595 1.30659 24 1.64573 24 1.99935V20.666C24 21.0196 23.8595 21.3588 23.6095 21.6088C23.3594 21.8589 23.0203 21.9993 22.6667 21.9993H18.6667ZM5.33333 19.3327V21.9993H8V23.3327H10.6667V21.9993H11.3333C12.2174 21.9993 13.0652 21.6482 13.6904 21.023C14.3155 20.3979 14.6667 19.5501 14.6667 18.666C14.6667 17.782 14.3155 16.9341 13.6904 16.309C13.0652 15.6839 12.2174 15.3327 11.3333 15.3327H7.33333C7.15652 15.3327 6.98695 15.2624 6.86193 15.1374C6.7369 15.0124 6.66667 14.8428 6.66667 14.666C6.66667 14.4892 6.7369 14.3196 6.86193 14.1946C6.98695 14.0696 7.15652 13.9993 7.33333 13.9993H13.3333V11.3327H10.6667V9.99935H8V11.3327H7.33333C6.44928 11.3327 5.60143 11.6839 4.97631 12.309C4.35119 12.9341 4 13.782 4 14.666C4 15.5501 4.35119 16.3979 4.97631 17.023C5.60143 17.6482 6.44928 17.9993 7.33333 17.9993H11.3333C11.5101 17.9993 11.6797 18.0696 11.8047 18.1946C11.9298 18.3196 12 18.4892 12 18.666C12 18.8428 11.9298 19.0124 11.8047 19.1374C11.6797 19.2624 11.5101 19.3327 11.3333 19.3327H5.33333Z" fill="#042C5B"/>
</svg>
