<svg width="28" height="28" viewBox="0 0 28 28" fill="none" xmlns="http://www.w3.org/2000/svg">
<path d="M0.666504 24.666H27.3332V27.3327H0.666504V24.666ZM3.33317 13.9993H5.99984V23.3327H3.33317V13.9993ZM9.99984 13.9993H12.6665V23.3327H9.99984V13.9993ZM15.3332 13.9993H17.9998V23.3327H15.3332V13.9993ZM21.9998 13.9993H24.6665V23.3327H21.9998V13.9993ZM0.666504 7.33268L13.9998 0.666016L27.3332 7.33268V12.666H0.666504V7.33268ZM13.9998 8.66602C14.3535 8.66602 14.6926 8.52554 14.9426 8.27549C15.1927 8.02544 15.3332 7.6863 15.3332 7.33268C15.3332 6.97906 15.1927 6.63992 14.9426 6.38987C14.6926 6.13983 14.3535 5.99935 13.9998 5.99935C13.6462 5.99935 13.3071 6.13983 13.057 6.38987C12.807 6.63992 12.6665 6.97906 12.6665 7.33268C12.6665 7.6863 12.807 8.02544 13.057 8.27549C13.3071 8.52554 13.6462 8.66602 13.9998 8.66602Z" fill="#042C5B"/>
</svg>
