<svg width="28" height="28" viewBox="0 0 28 28" fill="none" xmlns="http://www.w3.org/2000/svg">
<path d="M13.9998 27.3327C6.63584 27.3327 0.666504 21.3633 0.666504 13.9993C0.666504 6.63535 6.63584 0.666016 13.9998 0.666016C21.3638 0.666016 27.3332 6.63535 27.3332 13.9993C27.3332 21.3633 21.3638 27.3327 13.9998 27.3327ZM9.33317 16.666V19.3327H12.6665V21.9993H15.3332V19.3327H16.6665C17.5506 19.3327 18.3984 18.9815 19.0235 18.3564C19.6486 17.7313 19.9998 16.8834 19.9998 15.9993C19.9998 15.1153 19.6486 14.2674 19.0235 13.6423C18.3984 13.0172 17.5506 12.666 16.6665 12.666H11.3332C11.1564 12.666 10.9868 12.5958 10.8618 12.4708C10.7367 12.3457 10.6665 12.1762 10.6665 11.9993C10.6665 11.8225 10.7367 11.653 10.8618 11.5279C10.9868 11.4029 11.1564 11.3327 11.3332 11.3327H18.6665V8.66602H15.3332V5.99935H12.6665V8.66602H11.3332C10.4491 8.66602 9.60127 9.01721 8.97615 9.64233C8.35103 10.2674 7.99984 11.1153 7.99984 11.9993C7.99984 12.8834 8.35103 13.7313 8.97615 14.3564C9.60127 14.9815 10.4491 15.3327 11.3332 15.3327H16.6665C16.8433 15.3327 17.0129 15.4029 17.1379 15.5279C17.2629 15.653 17.3332 15.8225 17.3332 15.9993C17.3332 16.1762 17.2629 16.3457 17.1379 16.4708C17.0129 16.5958 16.8433 16.666 16.6665 16.666H9.33317Z" fill="#042C5B"/>
</svg>
