<svg width="32" height="25" viewBox="0 0 32 25" fill="none" xmlns="http://www.w3.org/2000/svg">
<path d="M29.3333 13.0007V23.0007C29.3333 23.3543 29.1929 23.6934 28.9428 23.9435C28.6928 24.1935 28.3536 24.334 28 24.334H26.6667C26.313 24.334 25.9739 24.1935 25.7239 23.9435C25.4738 23.6934 25.3333 23.3543 25.3333 23.0007V21.6673H6.66667V23.0007C6.66667 23.3543 6.52619 23.6934 6.27614 23.9435C6.02609 24.1935 5.68696 24.334 5.33333 24.334H4C3.64638 24.334 3.30724 24.1935 3.05719 23.9435C2.80714 23.6934 2.66667 23.3543 2.66667 23.0007V13.0007L1.00933 12.5873C0.721005 12.5151 0.465078 12.3486 0.282207 12.1143C0.0993362 11.8799 7.81391e-06 11.5912 0 11.294L0 10.334C0 10.1572 0.0702379 9.9876 0.195262 9.86258C0.320286 9.73756 0.489856 9.66732 0.666667 9.66732H3.16667L6.01733 2.06465C6.20791 1.55624 6.54914 1.11812 6.99541 0.808855C7.44167 0.499589 7.97171 0.333917 8.51467 0.333984H23.4853C24.0283 0.333917 24.5583 0.499589 25.0046 0.808855C25.4509 1.11812 25.7921 1.55624 25.9827 2.06465L28.8333 9.66732H31.3333C31.5101 9.66732 31.6797 9.73756 31.8047 9.86258C31.9298 9.9876 32 10.1572 32 10.334V11.294C32 11.5912 31.9007 11.8799 31.7178 12.1143C31.5349 12.3486 31.279 12.5151 30.9907 12.5873L29.3333 13.0007ZM5.33333 15.0007V17.6673C5.33333 18.0209 5.47381 18.3601 5.72386 18.6101C5.97391 18.8602 6.31305 19.0007 6.66667 19.0007H10.9933C11.1085 19.0005 11.2216 18.9705 11.3217 18.9136C11.4218 18.8567 11.5054 18.7749 11.5645 18.6761C11.6236 18.5773 11.656 18.4648 11.6587 18.3497C11.6615 18.2346 11.6343 18.1208 11.58 18.0193C10.5067 16.006 8.424 15.0007 5.33333 15.0007ZM26.6667 15.0007C23.5773 15.0007 21.4947 16.0073 20.4187 18.0193C20.3643 18.1209 20.3371 18.2349 20.3399 18.3501C20.3427 18.4653 20.3753 18.5778 20.4345 18.6766C20.4938 18.7755 20.5776 18.8573 20.6779 18.9141C20.7781 18.9709 20.8914 19.0007 21.0067 19.0007H25.3333C25.687 19.0007 26.0261 18.8602 26.2761 18.6101C26.5262 18.3601 26.6667 18.0209 26.6667 17.6673V15.0007ZM8 3.00065L5.91867 9.24599C5.85194 9.44632 5.83375 9.65964 5.86559 9.86838C5.89744 10.0771 5.9784 10.2753 6.10182 10.4467C6.22524 10.618 6.38759 10.7576 6.5755 10.8539C6.76341 10.9502 6.97151 11.0005 7.18267 11.0007H24.8173C25.0285 11.0005 25.2366 10.9502 25.4245 10.8539C25.6124 10.7576 25.7748 10.618 25.8982 10.4467C26.0216 10.2753 26.1026 10.0771 26.1344 9.86838C26.1663 9.65964 26.1481 9.44632 26.0813 9.24599L24 3.00065H8Z" fill="#042C5B"/>
</svg>
