<svg width="24" height="24" viewBox="0 0 24 24" fill="none" xmlns="http://www.w3.org/2000/svg">
<path d="M3.10672 0.361162C3.93879 0.0643271 4.83802 0.00976904 5.69987 0.203831C6.56171 0.397892 7.35078 0.832601 7.97531 1.45742C8.59985 2.08223 9.03421 2.87149 9.22788 3.73342C9.42156 4.59536 9.3666 5.49456 9.06939 6.3265L23.5294 20.7865L20.7001 23.6145L6.24006 9.15583C5.40799 9.45266 4.50876 9.50722 3.64692 9.31316C2.78507 9.1191 1.99601 8.68439 1.37147 8.05957C0.746932 7.43476 0.312576 6.6455 0.1189 5.78357C-0.0747761 4.92163 -0.019816 4.02243 0.277391 3.1905L3.25872 6.17316C3.44322 6.36418 3.66391 6.51655 3.90792 6.62137C4.15192 6.72618 4.41436 6.78135 4.67992 6.78366C4.94548 6.78597 5.20884 6.73537 5.45463 6.63481C5.70042 6.53424 5.92373 6.38574 6.11151 6.19795C6.2993 6.01017 6.44781 5.78686 6.54837 5.54107C6.64893 5.29528 6.69953 5.03192 6.69723 4.76636C6.69492 4.5008 6.63974 4.23836 6.53493 3.99435C6.43011 3.75034 6.27774 3.52966 6.08672 3.34516L3.10539 0.359829L3.10672 0.361162ZM16.9294 2.87316L21.1721 0.515829L23.0574 2.40116L20.7001 6.64383L18.3427 7.11583L15.5161 9.94383L13.6294 8.05849L16.4574 5.23049L16.9294 2.87316ZM7.50139 13.2438L10.3294 16.0732L3.72939 22.6732C3.36544 23.0337 2.87701 23.2408 2.36483 23.2519C1.85265 23.2629 1.35577 23.0769 0.976662 22.7323C0.597552 22.3878 0.36512 21.9109 0.327299 21.4C0.289478 20.8891 0.449151 20.3831 0.773391 19.9865L0.902724 19.8438L7.50272 13.2438H7.50139Z" fill="#042C5B"/>
</svg>
