<svg width="28" height="27" viewBox="0 0 28 27" fill="none" xmlns="http://www.w3.org/2000/svg">
<path d="M20.6665 3.00065H25.9998C26.3535 3.00065 26.6926 3.14113 26.9426 3.39118C27.1927 3.64122 27.3332 3.98036 27.3332 4.33398V25.6673C27.3332 26.0209 27.1927 26.3601 26.9426 26.6101C26.6926 26.8602 26.3535 27.0006 25.9998 27.0006H1.99984C1.64622 27.0006 1.30708 26.8602 1.05703 26.6101C0.80698 26.3601 0.666504 26.0209 0.666504 25.6673V4.33398C0.666504 3.98036 0.80698 3.64122 1.05703 3.39118C1.30708 3.14113 1.64622 3.00065 1.99984 3.00065H7.33317V0.333984H9.99984V3.00065H17.9998V0.333984H20.6665V3.00065ZM3.33317 11.0007V24.334H24.6665V11.0007H3.33317ZM5.99984 13.6673H8.6665V16.334H5.99984V13.6673ZM5.99984 19.0007H8.6665V21.6673H5.99984V19.0007ZM11.3332 13.6673H21.9998V16.334H11.3332V13.6673ZM11.3332 19.0007H17.9998V21.6673H11.3332V19.0007Z" fill="#042C5B"/>
</svg>
