<svg width="24" height="24" viewBox="0 0 24 24" fill="none" xmlns="http://www.w3.org/2000/svg">
<path d="M19.3333 24C18.0957 24 16.9087 23.5083 16.0335 22.6332C15.1583 21.758 14.6667 20.571 14.6667 19.3333C14.6667 18.0957 15.1583 16.9087 16.0335 16.0335C16.9087 15.1583 18.0957 14.6667 19.3333 14.6667C20.571 14.6667 21.758 15.1583 22.6332 16.0335C23.5083 16.9087 24 18.0957 24 19.3333C24 20.571 23.5083 21.758 22.6332 22.6332C21.758 23.5083 20.571 24 19.3333 24ZM4.66667 9.33333C4.05383 9.33333 3.447 9.21263 2.88081 8.97811C2.31462 8.74358 1.80017 8.39984 1.36683 7.9665C0.933495 7.53316 0.589751 7.01871 0.355229 6.45252C0.120707 5.88634 0 5.2795 0 4.66667C0 4.05383 0.120707 3.447 0.355229 2.88081C0.589751 2.31462 0.933495 1.80018 1.36683 1.36684C1.80017 0.933495 2.31462 0.589751 2.88081 0.355229C3.447 0.120707 4.05383 -1.29145e-08 4.66667 0C5.90434 2.60821e-08 7.09133 0.491666 7.9665 1.36684C8.84167 2.24201 9.33333 3.42899 9.33333 4.66667C9.33333 5.90434 8.84167 7.09133 7.9665 7.9665C7.09133 8.84167 5.90434 9.33333 4.66667 9.33333ZM21.428 0.686667L23.3133 2.572L2.57333 23.3133L0.688 21.428L21.4267 0.686667H21.428Z" fill="#042C5B"/>
</svg>
