<svg width="146" height="40" viewBox="0 0 146 40" fill="none" xmlns="http://www.w3.org/2000/svg">
<path d="M22.5512 20.9077C22.5135 16.7387 25.9841 14.7104 26.1428 14.616C24.1772 11.7663 21.1307 11.377 20.0601 11.346C17.5014 11.0782 15.0194 12.8684 13.716 12.8684C12.3866 12.8684 10.3794 11.3718 8.21612 11.4158C5.43236 11.4585 2.82811 13.0612 1.39981 15.5499C-1.54785 20.6245 0.650536 28.0817 3.47462 32.1834C4.88732 34.1923 6.53806 36.4353 8.69873 36.3564C10.8126 36.2697 11.6022 35.0163 14.1531 35.0163C16.6806 35.0163 17.422 36.3564 19.6256 36.3059C21.8943 36.2697 23.3226 34.288 24.6858 32.2611C26.3184 29.9586 26.974 27.691 27 27.5746C26.9467 27.5565 22.5941 25.9046 22.5512 20.9077Z" fill="white"/>
<path d="M18.3886 8.64765C19.5255 7.23382 20.3034 5.31034 20.0874 3.3584C18.4419 3.43084 16.384 4.49024 15.1989 5.87302C14.1505 7.09153 13.2139 9.08874 13.4558 10.9669C15.3043 11.1041 17.2022 10.0395 18.3886 8.64765Z" fill="white"/>
<path d="M47.6419 4.48885C47.6419 6.01895 47.1712 7.17075 46.2312 7.94425C45.3606 8.65795 44.1232 9.01545 42.5206 9.01545C41.7259 9.01545 41.0459 8.98165 40.4766 8.91405V0.553753C41.2192 0.436753 42.0192 0.376953 42.8832 0.376953C44.4099 0.376953 45.5606 0.700653 46.3366 1.34805C47.2059 2.07995 47.6419 3.12645 47.6419 4.48885ZM46.1686 4.52655C46.1686 3.53465 45.8992 2.77415 45.3606 2.24375C44.8219 1.71465 44.0352 1.44945 42.9992 1.44945C42.5592 1.44945 42.1846 1.47805 41.8739 1.53785V7.89355C42.0459 7.91955 42.3606 7.93125 42.8179 7.93125C43.8872 7.93125 44.7126 7.64135 45.2939 7.06155C45.8752 6.48175 46.1686 5.63675 46.1686 4.52655Z" fill="white"/>
<path d="M55.4539 5.8257C55.4539 6.7682 55.1779 7.5404 54.6259 8.1462C54.0472 8.7689 53.2805 9.0796 52.3232 9.0796C51.4005 9.0796 50.6659 8.7819 50.1179 8.1839C49.5712 7.5872 49.2979 6.8345 49.2979 5.9271C49.2979 4.9781 49.5792 4.1994 50.1445 3.5949C50.7099 2.9904 51.4699 2.6875 52.4272 2.6875C53.3499 2.6875 54.0912 2.9852 54.6525 3.5819C55.1859 4.1617 55.4539 4.9105 55.4539 5.8257ZM54.0045 5.8699C54.0045 5.3044 53.8792 4.8195 53.6299 4.4152C53.3365 3.9264 52.9192 3.682 52.3765 3.682C51.8152 3.682 51.3885 3.9264 51.0952 4.4152C50.8445 4.8195 50.7205 5.3122 50.7205 5.8946C50.7205 6.4601 50.8459 6.945 51.0952 7.3493C51.3979 7.8381 51.8192 8.0825 52.3632 8.0825C52.8965 8.0825 53.3152 7.8342 53.6165 7.3363C53.8752 6.9242 54.0045 6.4354 54.0045 5.8699Z" fill="white"/>
<path d="M65.9284 2.81152L63.9618 8.93972H62.6818L61.8671 6.27862C61.6604 5.61432 61.4924 4.95392 61.3618 4.29872H61.3364C61.2151 4.97212 61.0471 5.63122 60.8311 6.27862L59.9658 8.93972H58.6711L56.8218 2.81152H58.2578L58.9684 5.72482C59.1404 6.41382 59.2818 7.07032 59.3951 7.69172H59.4204C59.5244 7.17952 59.6964 6.52692 59.9391 5.73782L60.8311 2.81282H61.9698L62.8244 5.67542C63.0311 6.37352 63.1991 7.04562 63.3284 7.69302H63.3671C63.4618 7.06252 63.6044 6.39042 63.7938 5.67542L64.5564 2.81282H65.9284V2.81152Z" fill="white"/>
<path d="M73.1724 8.9405H71.7751V5.43049C71.7751 4.34889 71.3537 3.80809 70.5084 3.80809C70.0937 3.80809 69.7591 3.95629 69.4991 4.25399C69.2417 4.55169 69.1111 4.90269 69.1111 5.30439V8.9392H67.7137V4.56339C67.7137 4.02519 67.6964 3.44149 67.6631 2.80969H68.8911L68.9564 3.76779H68.9951C69.1577 3.47009 69.4004 3.22439 69.7191 3.02809C70.0977 2.79929 70.5217 2.68359 70.9857 2.68359C71.5724 2.68359 72.0604 2.86819 72.4484 3.23869C72.9311 3.69239 73.1724 4.36969 73.1724 5.26929V8.9405Z" fill="white"/>
<path d="M77.0259 8.9401H75.6299V0H77.0259V8.9401Z" fill="white"/>
<path d="M85.2527 5.8257C85.2527 6.7682 84.9767 7.5404 84.4247 8.1462C83.846 8.7689 83.078 9.0796 82.122 9.0796C81.198 9.0796 80.4633 8.7819 79.9167 8.1839C79.37 7.5872 79.0967 6.8345 79.0967 5.9271C79.0967 4.9781 79.378 4.1994 79.9433 3.5949C80.5087 2.9904 81.2687 2.6875 82.2247 2.6875C83.1487 2.6875 83.8887 2.9852 84.4513 3.5819C84.9847 4.1617 85.2527 4.9105 85.2527 5.8257ZM83.802 5.8699C83.802 5.3044 83.6767 4.8195 83.4273 4.4152C83.1353 3.9264 82.7167 3.682 82.1753 3.682C81.6127 3.682 81.186 3.9264 80.894 4.4152C80.6433 4.8195 80.5193 5.3122 80.5193 5.8946C80.5193 6.4601 80.6447 6.945 80.894 7.3493C81.1967 7.8381 81.618 8.0825 82.162 8.0825C82.6954 8.0825 83.1127 7.8342 83.414 7.3363C83.674 6.9242 83.802 6.4354 83.802 5.8699Z" fill="white"/>
<path d="M92.0155 8.9405H90.7608L90.6568 8.2346H90.6181C90.1888 8.7975 89.5768 9.0796 88.7821 9.0796C88.1888 9.0796 87.7088 8.8937 87.3475 8.5245C87.0195 8.1891 86.8555 7.7718 86.8555 7.2765C86.8555 6.5277 87.1755 5.957 87.8195 5.5618C88.4621 5.1666 89.3661 4.9729 90.5301 4.982V4.8676C90.5301 4.0603 90.0955 3.6573 89.2248 3.6573C88.6048 3.6573 88.0581 3.8094 87.5861 4.111L87.3021 3.2166C87.8861 2.8643 88.6075 2.6875 89.4581 2.6875C91.1008 2.6875 91.9248 3.5325 91.9248 5.2225V7.4793C91.9248 8.0916 91.9555 8.5791 92.0155 8.9405ZM90.5648 6.8345V5.8894C89.0235 5.8634 88.2528 6.2755 88.2528 7.1244C88.2528 7.4442 88.3408 7.6834 88.5208 7.8433C88.7008 8.0032 88.9301 8.0825 89.2035 8.0825C89.5101 8.0825 89.7968 7.9876 90.0581 7.7991C90.3208 7.6093 90.4821 7.3688 90.5421 7.0737C90.5568 7.0074 90.5648 6.9268 90.5648 6.8345Z" fill="white"/>
<path d="M99.9551 8.9401H98.7151L98.6497 7.956H98.6111C98.2151 8.7048 97.5404 9.0792 96.5924 9.0792C95.8351 9.0792 95.2044 8.7893 94.7044 8.2095C94.2044 7.6297 93.9551 6.877 93.9551 5.9527C93.9551 4.9608 94.2257 4.1574 94.7697 3.5438C95.2964 2.9718 95.9417 2.6858 96.7097 2.6858C97.5537 2.6858 98.1444 2.9627 98.4804 3.5178H98.5071V0H99.9057V7.2891C99.9057 7.8858 99.9217 8.4357 99.9551 8.9401ZM98.5071 6.3557V5.3339C98.5071 5.1571 98.4937 5.0141 98.4684 4.9049C98.3897 4.5773 98.2204 4.3017 97.9631 4.0794C97.7031 3.8571 97.3897 3.7453 97.0284 3.7453C96.5071 3.7453 96.0991 3.9468 95.7991 4.3511C95.5017 4.7554 95.3511 5.2715 95.3511 5.902C95.3511 6.5078 95.4937 6.9992 95.7804 7.3775C96.0831 7.7805 96.4911 7.982 97.0017 7.982C97.4604 7.982 97.8271 7.8143 98.1057 7.4776C98.3751 7.1669 98.5071 6.7925 98.5071 6.3557Z" fill="white"/>
<path d="M111.906 5.8257C111.906 6.7682 111.63 7.5404 111.078 8.1462C110.499 8.7689 109.734 9.0796 108.775 9.0796C107.854 9.0796 107.119 8.7819 106.57 8.1839C106.023 7.5872 105.75 6.8345 105.75 5.9271C105.75 4.9781 106.031 4.1994 106.597 3.5949C107.162 2.9904 107.922 2.6875 108.881 2.6875C109.802 2.6875 110.545 2.9852 111.105 3.5819C111.638 4.1617 111.906 4.9105 111.906 5.8257ZM110.458 5.8699C110.458 5.3044 110.333 4.8195 110.083 4.4152C109.789 3.9264 109.373 3.682 108.829 3.682C108.269 3.682 107.842 3.9264 107.547 4.4152C107.297 4.8195 107.173 5.3122 107.173 5.8946C107.173 6.4601 107.298 6.945 107.547 7.3493C107.85 7.8381 108.271 8.0825 108.815 8.0825C109.349 8.0825 109.769 7.8342 110.07 7.3363C110.327 6.9242 110.458 6.4354 110.458 5.8699Z" fill="white"/>
<path d="M119.419 8.9405H118.023V5.43049C118.023 4.34889 117.602 3.80809 116.755 3.80809C116.34 3.80809 116.006 3.95629 115.747 4.25399C115.488 4.55169 115.359 4.90269 115.359 5.30439V8.9392H113.96V4.56339C113.96 4.02519 113.944 3.44149 113.911 2.80969H115.138L115.203 3.76779H115.242C115.406 3.47009 115.648 3.22439 115.966 3.02809C116.346 2.79929 116.768 2.68359 117.234 2.68359C117.819 2.68359 118.307 2.86819 118.695 3.23869C119.179 3.69239 119.419 4.36969 119.419 5.26929V8.9405Z" fill="white"/>
<path d="M128.823 3.83283H127.284V6.80983C127.284 7.56643 127.558 7.94473 128.099 7.94473C128.35 7.94473 128.558 7.92393 128.722 7.88103L128.758 8.91453C128.482 9.01593 128.119 9.06663 127.672 9.06663C127.12 9.06663 126.691 8.90283 126.38 8.57523C126.068 8.24763 125.914 7.69643 125.914 6.92293V3.83283H124.995V2.81233H125.914V1.68913L127.283 1.28613V2.81103H128.822V3.83283H128.823Z" fill="white"/>
<path d="M136.22 8.9401H134.822V5.4561C134.822 4.3576 134.4 3.8077 133.556 3.8077C132.908 3.8077 132.466 4.1262 132.223 4.7632C132.182 4.8971 132.158 5.0609 132.158 5.2533V8.9388H130.762V0H132.158V3.6933H132.184C132.624 3.0212 133.255 2.6858 134.072 2.6858C134.651 2.6858 135.13 2.8704 135.51 3.2409C135.983 3.7024 136.22 4.3888 136.22 5.2962V8.9401Z" fill="white"/>
<path d="M143.851 5.58648C143.851 5.83088 143.833 6.03628 143.799 6.20398H139.609C139.627 6.80978 139.827 7.27128 140.215 7.59108C140.57 7.87708 141.027 8.02008 141.587 8.02008C142.207 8.02008 142.773 7.92388 143.282 7.73018L143.501 8.67658C142.905 8.92878 142.203 9.05488 141.391 9.05488C140.418 9.05488 139.651 8.77538 139.097 8.21638C138.539 7.65738 138.263 6.90728 138.263 5.96608C138.263 5.04178 138.521 4.27218 139.039 3.65858C139.581 3.00338 140.313 2.67578 141.237 2.67578C142.141 2.67578 142.827 3.00338 143.291 3.65858C143.666 4.17858 143.851 4.82208 143.851 5.58648ZM142.518 5.23418C142.529 4.82988 142.437 4.48148 142.247 4.18768C142.005 3.80938 141.635 3.61958 141.135 3.61958C140.679 3.61958 140.307 3.80418 140.023 4.17468C139.791 4.46978 139.654 4.82208 139.609 5.23418H142.518Z" fill="white"/>
<path d="M53.98 34.6334H50.952L49.2933 29.5517H43.528L41.948 34.6334H39L44.712 17.333H48.24L53.98 34.6334ZM48.7933 27.4197L47.2933 22.9022C47.1347 22.4407 46.8373 21.3539 46.3987 19.6431H46.3453C46.1707 20.3789 45.8893 21.4657 45.5027 22.9022L44.0293 27.4197H48.7933Z" fill="white"/>
<path d="M68.6695 28.2424C68.6695 30.364 68.0815 32.041 66.9055 33.2721C65.8521 34.368 64.5441 34.9153 62.9828 34.9153C61.2975 34.9153 60.0868 34.3251 59.3495 33.1447H59.2961V39.7162H56.4535V26.2651C56.4535 24.9313 56.4175 23.5624 56.3481 22.1584H58.8481L59.0068 24.1357H59.0601C60.0081 22.6459 61.4468 21.9023 63.3775 21.9023C64.8868 21.9023 66.1468 22.4834 67.1548 23.6469C68.1655 24.8117 68.6695 26.3431 68.6695 28.2424ZM65.7735 28.3438C65.7735 27.1296 65.4935 26.1286 64.9308 25.3408C64.3161 24.5192 63.4908 24.1084 62.4561 24.1084C61.7548 24.1084 61.1175 24.3372 60.5481 24.7883C59.9775 25.2433 59.6041 25.8374 59.4295 26.5732C59.3415 26.9164 59.2975 27.1972 59.2975 27.4182V29.4982C59.2975 30.4056 59.5828 31.1713 60.1535 31.7966C60.7241 32.4219 61.4655 32.7339 62.3775 32.7339C63.4481 32.7339 64.2815 32.3309 64.8775 31.5275C65.4748 30.7228 65.7735 29.662 65.7735 28.3438Z" fill="white"/>
<path d="M83.3854 28.2424C83.3854 30.364 82.7974 32.041 81.6201 33.2721C80.5681 34.368 79.2601 34.9153 77.6988 34.9153C76.0134 34.9153 74.8028 34.3251 74.0668 33.1447H74.0134V39.7162H71.1708V26.2651C71.1708 24.9313 71.1348 23.5624 71.0654 22.1584H73.5654L73.7241 24.1357H73.7774C74.7241 22.6459 76.1628 21.9023 78.0948 21.9023C79.6028 21.9023 80.8628 22.4834 81.8734 23.6469C82.8801 24.8117 83.3854 26.3431 83.3854 28.2424ZM80.4894 28.3438C80.4894 27.1296 80.2081 26.1286 79.6454 25.3408C79.0308 24.5192 78.2081 24.1084 77.1721 24.1084C76.4694 24.1084 75.8334 24.3372 75.2628 24.7883C74.6921 25.2433 74.3201 25.8374 74.1454 26.5732C74.0588 26.9164 74.0134 27.1972 74.0134 27.4182V29.4982C74.0134 30.4056 74.2988 31.1713 74.8668 31.7966C75.4374 32.4206 76.1788 32.7339 77.0934 32.7339C78.1641 32.7339 78.9974 32.3309 79.5934 31.5275C80.1908 30.7228 80.4894 29.662 80.4894 28.3438Z" fill="white"/>
<path d="M99.8386 29.7814C99.8386 31.253 99.3146 32.4503 98.2626 33.3746C97.1066 34.3847 95.4972 34.8891 93.4292 34.8891C91.5199 34.8891 89.9892 34.5303 88.8306 33.8114L89.4892 31.5013C90.7372 32.2371 92.1066 32.6063 93.5986 32.6063C94.6692 32.6063 95.5026 32.3697 96.1012 31.8991C96.6972 31.4285 96.9946 30.7967 96.9946 30.0089C96.9946 29.3069 96.7492 28.7154 96.2572 28.2357C95.7679 27.756 94.9506 27.3101 93.8092 26.898C90.7026 25.7683 89.1506 24.1134 89.1506 21.9372C89.1506 20.515 89.6946 19.3489 90.7839 18.4415C91.8692 17.5328 93.3172 17.0791 95.1279 17.0791C96.7426 17.0791 98.0839 17.3534 99.1546 17.9007L98.4439 20.1601C97.4439 19.6297 96.3132 19.3645 95.0479 19.3645C94.0479 19.3645 93.2666 19.605 92.7066 20.0834C92.2332 20.5111 91.9959 21.0324 91.9959 21.6499C91.9959 22.3337 92.2666 22.8992 92.8106 23.3438C93.2839 23.7546 94.1439 24.1992 95.3919 24.6789C96.9186 25.2782 98.0399 25.9789 98.7612 26.7823C99.4799 27.5831 99.8386 28.5854 99.8386 29.7814Z" fill="white"/>
<path d="M109.237 24.2381H106.104V30.2948C106.104 31.8353 106.656 32.6049 107.763 32.6049C108.271 32.6049 108.692 32.562 109.025 32.4762L109.104 34.5809C108.544 34.785 107.807 34.8877 106.893 34.8877C105.771 34.8877 104.893 34.5536 104.26 33.8867C103.629 33.2185 103.312 32.0979 103.312 30.5236V24.2355H101.445V22.1555H103.312V19.8714L106.104 19.0498V22.1555H109.237V24.2381Z" fill="white"/>
<path d="M123.375 28.2928C123.375 30.2103 122.812 31.7846 121.689 33.0157C120.512 34.2832 118.949 34.915 117.001 34.915C115.124 34.915 113.629 34.3079 112.515 33.0937C111.4 31.8795 110.843 30.3468 110.843 28.4995C110.843 26.5664 111.416 24.983 112.567 23.7519C113.715 22.5195 115.264 21.9033 117.212 21.9033C119.089 21.9033 120.6 22.5104 121.74 23.7259C122.831 24.905 123.375 26.4273 123.375 28.2928ZM120.425 28.3825C120.425 27.232 120.173 26.2453 119.663 25.4224C119.067 24.4266 118.215 23.93 117.111 23.93C115.968 23.93 115.1 24.4279 114.504 25.4224C113.993 26.2466 113.741 27.2489 113.741 28.4345C113.741 29.585 113.993 30.5717 114.504 31.3933C115.119 32.3891 115.977 32.8857 117.085 32.8857C118.171 32.8857 119.023 32.3787 119.637 31.3673C120.161 30.5288 120.425 29.5317 120.425 28.3825Z" fill="white"/>
<path d="M132.615 24.5959C132.334 24.5452 132.034 24.5192 131.719 24.5192C130.719 24.5192 129.946 24.8871 129.402 25.6242C128.928 26.2742 128.691 27.0958 128.691 28.0877V34.6332H125.85L125.876 26.087C125.876 24.6492 125.84 23.3401 125.77 22.1597H128.246L128.35 24.5465H128.428C128.728 23.7262 129.202 23.0658 129.85 22.5705C130.483 22.1246 131.167 21.9023 131.904 21.9023C132.167 21.9023 132.404 21.9205 132.615 21.953V24.5959Z" fill="white"/>
<path d="M145.328 27.8056C145.328 28.3022 145.295 28.7208 145.224 29.0627H136.696C136.73 30.2951 137.142 31.2376 137.934 31.8876C138.652 32.4687 139.582 32.7599 140.723 32.7599C141.986 32.7599 143.138 32.5636 144.174 32.1697L144.619 34.0937C143.408 34.6085 141.979 34.8646 140.33 34.8646C138.346 34.8646 136.788 34.2952 135.655 33.1577C134.524 32.0202 133.958 30.4927 133.958 28.5765C133.958 26.6954 134.484 25.1289 135.539 23.8796C136.643 22.5458 138.135 21.8789 140.012 21.8789C141.856 21.8789 143.252 22.5458 144.2 23.8796C144.951 24.9391 145.328 26.2495 145.328 27.8056ZM142.618 27.0867C142.636 26.2651 142.451 25.5553 142.066 24.956C141.574 24.1851 140.818 23.8003 139.8 23.8003C138.871 23.8003 138.115 24.176 137.538 24.93C137.064 25.5293 136.783 26.2482 136.696 27.0854H142.618V27.0867Z" fill="white"/>
</svg>
