<svg width="156" height="40" viewBox="0 0 156 40" fill="none" xmlns="http://www.w3.org/2000/svg">
<path d="M0.618332 3.94302C0.226665 4.34277 0 4.96515 0 5.77115V34.5206C0 35.3266 0.226665 35.949 0.618332 36.3488L0.714999 36.4365L17.2383 20.3328V19.9525L0.714999 3.84877L0.618332 3.94302Z" fill="url(#paint0_linear_40_21172)"/>
<path d="M22.7399 25.7041L17.2383 20.3335V19.9532L22.7466 14.5826L22.8699 14.6525L29.3933 18.2714C31.2549 19.2984 31.2549 20.9884 29.3933 22.0219L22.8699 25.6342L22.7399 25.7041Z" fill="url(#paint1_linear_40_21172)"/>
<path d="M22.8698 25.6338L17.2382 20.1429L0.618164 36.349C1.2365 36.9828 2.24483 37.0592 3.3915 36.4254L22.8698 25.6338Z" fill="url(#paint2_linear_40_21172)"/>
<path d="M22.8698 14.6517L3.3915 3.86008C2.24483 3.23283 1.2365 3.30921 0.618164 3.94296L17.2382 20.1426L22.8698 14.6517Z" fill="url(#paint3_linear_40_21172)"/>
<path d="M50.8762 5.39237C50.8762 6.47787 50.5429 7.34725 49.8862 7.99563C49.1312 8.76425 48.1479 9.151 46.9429 9.151C45.7912 9.151 44.8079 8.75775 44.0012 7.98262C43.1929 7.19612 42.7896 6.23087 42.7896 5.0755C42.7896 3.92012 43.1929 2.95488 44.0012 2.17488C44.8079 1.39325 45.7912 1 46.9429 1C47.5162 1 48.0629 1.11538 48.5845 1.32988C49.1045 1.546 49.5279 1.8385 49.8345 2.19925L49.1379 2.885C48.6029 2.26913 47.8746 1.96525 46.9429 1.96525C46.1029 1.96525 45.3746 2.25125 44.7562 2.82812C44.1446 3.40662 43.8379 4.15575 43.8379 5.0755C43.8379 5.99525 44.1446 6.75087 44.7562 7.32937C45.3746 7.89975 46.1029 8.19225 46.9429 8.19225C47.8346 8.19225 48.5846 7.89975 49.1762 7.32287C49.5662 6.941 49.7879 6.4145 49.8462 5.74175H46.9429V4.8025H50.8162C50.8629 5.00562 50.8762 5.20225 50.8762 5.39237Z" fill="white" stroke="white" stroke-width="0.16" stroke-miterlimit="10"/>
<path d="M57.0214 2.13584H53.383V4.60584H56.663V5.54508H53.383V8.01508H57.0214V8.97221H52.353V1.17871H57.0214V2.13584Z" fill="white" stroke="white" stroke-width="0.16" stroke-miterlimit="10"/>
<path d="M61.3579 8.97221H60.3279V2.13584H58.0962V1.17871H63.5912V2.13584H61.3579V8.97221Z" fill="white" stroke="white" stroke-width="0.16" stroke-miterlimit="10"/>
<path d="M67.5679 8.97221V1.17871H68.5962V8.97221H67.5679Z" fill="white" stroke="white" stroke-width="0.16" stroke-miterlimit="10"/>
<path d="M73.1547 8.97221H72.1331V2.13584H69.8931V1.17871H75.3947V2.13584H73.1547V8.97221Z" fill="white" stroke="white" stroke-width="0.16" stroke-miterlimit="10"/>
<path d="M85.7979 7.96962C85.0096 8.75775 84.0329 9.151 82.8679 9.151C81.6963 9.151 80.7196 8.75775 79.9313 7.96962C79.1446 7.18312 78.7529 6.21787 78.7529 5.0755C78.7529 3.93312 79.1446 2.96787 79.9313 2.18138C80.7196 1.39325 81.6963 1 82.8679 1C84.0263 1 85.0029 1.39325 85.7913 2.18787C86.5846 2.98087 86.9763 3.93962 86.9763 5.0755C86.9763 6.21787 86.5846 7.18312 85.7979 7.96962ZM80.6929 7.31637C81.2863 7.89975 82.0079 8.19225 82.8679 8.19225C83.7213 8.19225 84.4496 7.89975 85.0363 7.31637C85.6279 6.733 85.9279 5.98387 85.9279 5.0755C85.9279 4.16712 85.6279 3.418 85.0363 2.83463C84.4496 2.25125 83.7213 1.95875 82.8679 1.95875C82.0079 1.95875 81.2863 2.25125 80.6929 2.83463C80.1013 3.418 79.8013 4.16712 79.8013 5.0755C79.8013 5.98387 80.1013 6.733 80.6929 7.31637Z" fill="white" stroke="white" stroke-width="0.16" stroke-miterlimit="10"/>
<path d="M88.4214 8.97221V1.17871H89.6714L93.5581 7.23996H93.6031L93.5581 5.74171V1.17871H94.5864V8.97221H93.5131L89.4431 2.61196H89.3981L89.4431 4.11671V8.97221H88.4214Z" fill="white" stroke="white" stroke-width="0.16" stroke-miterlimit="10"/>
<path d="M78.9162 23.2695C75.7845 23.2695 73.2262 25.5932 73.2262 28.7994C73.2262 31.9795 75.7845 34.3276 78.9162 34.3276C82.0545 34.3276 84.6129 31.9795 84.6129 28.7994C84.6129 25.5932 82.0545 23.2695 78.9162 23.2695ZM78.9162 32.1501C77.1979 32.1501 75.7195 30.7672 75.7195 28.7994C75.7195 26.8055 77.1979 25.447 78.9162 25.447C80.6345 25.447 82.1195 26.8055 82.1195 28.7994C82.1195 30.7672 80.6345 32.1501 78.9162 32.1501ZM66.5012 23.2695C63.3629 23.2695 60.8112 25.5932 60.8112 28.7994C60.8112 31.9795 63.3629 34.3276 66.5012 34.3276C69.6379 34.3276 72.1912 31.9795 72.1912 28.7994C72.1912 25.5932 69.6379 23.2695 66.5012 23.2695ZM66.5012 32.1501C64.7812 32.1501 63.2979 30.7672 63.2979 28.7994C63.2979 26.8055 64.7812 25.447 66.5012 25.447C68.2195 25.447 69.6979 26.8055 69.6979 28.7994C69.6979 30.7672 68.2195 32.1501 66.5012 32.1501ZM51.7279 24.9644V27.3141H57.4829C57.3145 28.6271 56.8645 29.5924 56.1745 30.2651C55.3345 31.0776 54.0262 31.9795 51.7279 31.9795C48.1862 31.9795 45.4129 29.1926 45.4129 25.7395C45.4129 22.2864 48.1862 19.4995 51.7279 19.4995C53.6429 19.4995 55.0362 20.2291 56.0645 21.1749L57.7629 19.519C56.3245 18.18 54.4112 17.1514 51.7279 17.1514C46.8712 17.1514 42.7896 21.0042 42.7896 25.7395C42.7896 30.4747 46.8712 34.3276 51.7279 34.3276C54.3529 34.3276 56.3245 33.4891 57.8745 31.9161C59.4629 30.3675 59.9579 28.19 59.9579 26.4317C59.9579 25.8857 59.9112 25.3836 59.8279 24.9644H51.7279ZM112.138 26.786C111.67 25.5494 110.225 23.2695 107.281 23.2695C104.365 23.2695 101.936 25.5104 101.936 28.7994C101.936 31.8966 104.34 34.3276 107.561 34.3276C110.166 34.3276 111.67 32.779 112.288 31.8771L110.355 30.621C109.71 31.5407 108.831 32.1501 107.561 32.1501C106.3 32.1501 105.395 31.5862 104.815 30.4747L112.4 27.4149L112.138 26.786ZM104.405 28.6271C104.34 26.4951 106.103 25.4031 107.366 25.4031C108.356 25.4031 109.196 25.8857 109.476 26.5764L104.405 28.6271ZM98.2395 33.9912H100.733V17.7412H98.2395V33.9912ZM94.1562 24.5012H94.0729C93.5129 23.8545 92.4445 23.2695 91.0912 23.2695C88.2512 23.2695 85.6545 25.7005 85.6545 28.8172C85.6545 31.9161 88.2512 34.3276 91.0912 34.3276C92.4445 34.3276 93.5129 33.7377 94.0729 33.0715H94.1562V33.8645C94.1562 35.9786 92.9979 37.1145 91.1295 37.1145C89.6062 37.1145 88.6612 36.042 88.2712 35.1401L86.1029 36.0225C86.7279 37.4882 88.3829 39.292 91.1295 39.292C94.0529 39.292 96.5195 37.615 96.5195 33.5346V23.6059H94.1562V24.5012ZM91.3045 32.1501C89.5862 32.1501 88.1479 30.7477 88.1479 28.8172C88.1479 26.8689 89.5862 25.447 91.3045 25.447C92.9979 25.447 94.3329 26.8689 94.3329 28.8172C94.3329 30.7477 92.9979 32.1501 91.3045 32.1501ZM123.811 17.7412H117.848V33.9912H120.335V27.8341H123.811C126.573 27.8341 129.281 25.8857 129.281 22.7869C129.281 19.6896 126.566 17.7412 123.811 17.7412ZM123.876 25.5737H120.335V20.0016H123.876C125.733 20.0016 126.793 21.5047 126.793 22.7869C126.793 24.0446 125.733 25.5737 123.876 25.5737ZM139.248 23.2386C137.451 23.2386 135.583 24.0121 134.815 25.7265L137.021 26.6284C137.496 25.7265 138.37 25.434 139.293 25.434C140.583 25.434 141.891 26.1896 141.911 27.5237V27.6944C141.461 27.4409 140.498 27.0655 139.313 27.0655C136.936 27.0655 134.515 28.3411 134.515 30.7217C134.515 32.8992 136.461 34.3016 138.65 34.3016C140.323 34.3016 141.246 33.5655 141.826 32.7091H141.911V33.9652H144.313V27.7317C144.313 24.8506 142.106 23.2386 139.248 23.2386ZM138.948 32.1436C138.135 32.1436 137.001 31.7504 137.001 30.7672C137.001 29.5095 138.415 29.0269 139.638 29.0269C140.733 29.0269 141.246 29.2625 141.911 29.5729C141.716 31.0776 140.388 32.1436 138.948 32.1436ZM153.063 23.5945L150.205 30.6389H150.12L147.165 23.5945H144.483L148.923 33.4387L146.39 38.9166H148.988L155.83 23.5945H153.063ZM130.648 33.9912H133.141V17.7412H130.648V33.9912Z" fill="white"/>
<defs>
<linearGradient id="paint0_linear_40_21172" x1="15.7713" y1="34.82" x2="-6.03887" y2="12.4507" gradientUnits="userSpaceOnUse">
<stop stop-color="#00A0FF"/>
<stop offset="0.0066" stop-color="#00A1FF"/>
<stop offset="0.2601" stop-color="#00BEFF"/>
<stop offset="0.5122" stop-color="#00D2FF"/>
<stop offset="0.7604" stop-color="#00DFFF"/>
<stop offset="1" stop-color="#00E3FF"/>
</linearGradient>
<linearGradient id="paint1_linear_40_21172" x1="31.8175" y1="20.1415" x2="-0.445048" y2="20.1415" gradientUnits="userSpaceOnUse">
<stop stop-color="#FFE000"/>
<stop offset="0.4087" stop-color="#FFBD00"/>
<stop offset="0.7754" stop-color="#FFA500"/>
<stop offset="1" stop-color="#FF9C00"/>
</linearGradient>
<linearGradient id="paint2_linear_40_21172" x1="19.8075" y1="17.158" x2="-9.76881" y2="-13.1767" gradientUnits="userSpaceOnUse">
<stop stop-color="#FF3A44"/>
<stop offset="1" stop-color="#C31162"/>
</linearGradient>
<linearGradient id="paint3_linear_40_21172" x1="-3.56543" y1="45.9135" x2="9.64171" y2="32.3679" gradientUnits="userSpaceOnUse">
<stop stop-color="#32A071"/>
<stop offset="0.0685" stop-color="#2DA771"/>
<stop offset="0.4762" stop-color="#15CF74"/>
<stop offset="0.8009" stop-color="#06E775"/>
<stop offset="1" stop-color="#00F076"/>
</linearGradient>
</defs>
</svg>
