<svg width="481" height="334" viewBox="0 0 481 334" fill="none" xmlns="http://www.w3.org/2000/svg">
<path d="M397.019 225.801C426.665 225.801 450.7 249.833 450.7 279.484C450.7 309.13 426.668 333.165 397.019 333.165C367.374 333.165 343.336 309.133 343.336 279.484C343.336 261.051 352.627 244.79 366.775 235.123L374.832 250.949C366.334 257.562 360.874 267.885 360.874 279.484C360.874 299.446 377.055 315.63 397.019 315.63C416.984 315.63 433.165 299.446 433.165 279.484C433.165 259.52 416.984 243.338 397.019 243.338C395.138 243.338 393.29 243.482 391.485 243.756L384.397 227.295C388.446 226.318 392.672 225.801 397.019 225.801Z" fill="#203156"/>
<path d="M397.019 243.335C416.984 243.335 433.165 259.517 433.165 279.481C433.165 299.442 416.984 315.627 397.019 315.627C377.055 315.627 360.874 299.442 360.874 279.481C360.874 267.881 366.337 257.559 374.832 250.946L382.024 265.079C378.437 268.814 376.23 273.887 376.23 279.478C376.23 290.956 385.539 300.262 397.017 300.262C408.495 300.262 417.803 290.956 417.803 279.478C417.803 268.3 408.983 259.186 397.926 258.711L391.482 243.75C393.29 243.479 395.138 243.335 397.019 243.335Z" fill="#FEF3EC"/>
<path d="M419.709 192.266C418.952 195.06 416.432 196.837 413.729 196.837C412.926 196.837 412.11 196.678 411.316 196.345C386.849 186.02 369.243 188.153 356.661 195.467L332.386 148.475C337.482 146.012 343.612 148.018 346.271 153.015L355.607 170.575C357.893 174.869 362.653 177.242 367.458 176.474L370.035 176.064C388.233 173.163 406.72 179.192 419.709 192.266Z" fill="#FEF3EC"/>
<path d="M397.928 258.719C408.985 259.193 417.805 268.307 417.805 279.485C417.805 290.963 408.497 300.269 397.019 300.269C385.541 300.269 376.232 290.963 376.232 279.485C376.232 273.895 378.439 268.821 382.026 265.086L389.278 279.33C390.699 282.121 393.527 283.731 396.462 283.731C397.657 283.731 398.872 283.463 400.016 282.901C403.864 281.008 405.556 276.426 403.858 272.485L397.928 258.719Z" fill="#FEF3EC"/>
<path d="M311.317 126.182C310.786 125.134 309.715 124.516 308.594 124.518L308.591 124.321C309.487 123.298 311.786 116.213 309.125 112.475C312.015 112.275 314.594 113.388 316.834 117.614L332.386 148.472L356.661 195.463L371.122 223.453L372.351 222.848C376.897 220.611 382.391 222.636 384.397 227.289L391.485 243.75L397.929 258.711L403.859 272.478C405.556 276.419 403.864 280.998 400.017 282.893C398.872 283.456 397.658 283.724 396.463 283.724C393.527 283.724 390.7 282.114 389.279 279.323L382.027 265.079L374.834 250.946L366.778 235.12L349.291 200.774L340.302 183.112H340.299L329.36 161.625L311.317 126.182Z" fill="#FEF3EC"/>
<path d="M340.299 183.115H340.302L349.291 200.777C337.917 210.707 331.957 224.874 329.086 234.089C328.23 236.835 326.538 239.149 324.34 240.776C322.143 242.401 319.436 243.341 316.56 243.341L315.526 242.259L290.633 216.165L298.969 186.155C299.458 184.488 299.774 182.819 299.93 181.163L340.299 183.115Z" fill="#FEF3EC"/>
<path d="M289.819 247.611C289.813 247.599 289.81 247.588 289.804 247.577C289.723 247.402 289.635 247.226 289.547 247.051C289.768 247.043 289.994 247.037 290.217 247.037C298.816 247.037 305.785 254.006 305.785 262.6C305.785 271.199 298.816 278.169 290.217 278.169C286.674 278.169 283.411 276.988 280.798 274.996C287.361 271.468 291.824 264.535 291.824 256.56C291.824 253.679 291.242 250.936 290.189 248.438C290.07 248.156 289.943 247.879 289.819 247.611Z" fill="#203156"/>
<path d="M294.206 162.323C299.613 158.484 306.365 157.04 312.868 158.339L329.36 161.625L340.299 183.112L299.93 181.157C300.579 174.199 298.376 167.487 294.206 162.323Z" fill="#FEF3EC"/>
<path d="M290.076 114.111L295.152 116.727C294.485 116.425 293.759 116.23 292.991 116.154C289.2 115.778 285.83 118.549 285.454 122.335C285.316 123.75 285.615 125.109 286.242 126.27C263.091 125.095 245.915 120.869 233.186 115.38L234.313 113.343L245.681 99.3535C255.605 104.616 268.792 109.668 286.222 113.337C286.228 113.34 286.234 113.343 286.242 113.343C286.977 113.495 287.717 113.651 288.468 113.798H288.471C288.999 113.902 289.536 114.007 290.076 114.111Z" fill="#FEF3EC"/>
<path d="M290.186 248.433C291.24 250.931 291.822 253.674 291.822 256.555C291.822 264.53 287.358 271.463 280.796 274.991C280.262 275.279 279.714 275.545 279.152 275.788L278.954 275.819C278.827 275.011 278.476 274.22 277.886 273.542L268.315 262.539L268.323 262.496H268.326L282.07 266.734C285.008 267.641 287.977 265.44 287.977 262.372C287.977 262.361 287.977 262.349 287.977 262.338C287.954 259.279 284.988 257.109 282.064 258.01L268.391 262.228L271.629 249.309L272.194 247.058L281.957 249.309L284.197 240.735C286.531 242.569 288.449 244.899 289.796 247.575C289.802 247.586 289.805 247.597 289.81 247.609C289.943 247.877 290.07 248.154 290.186 248.433Z" fill="#FEF3EC"/>
<path d="M277.408 280.012C278.637 278.972 279.197 277.362 278.954 275.822L279.151 275.791C279.714 275.548 280.262 275.283 280.796 274.995C283.409 276.986 286.674 278.167 290.214 278.167C298.813 278.167 305.783 271.198 305.783 262.598C305.783 254.002 298.813 247.036 290.214 247.036C289.991 247.036 289.765 247.041 289.545 247.05C288.245 244.513 286.446 242.275 284.276 240.467L290.632 216.161L315.526 242.256L315.204 243.338L302.319 286.413L280.053 285.074L277.408 280.012Z" fill="#FEF3EC"/>
<path d="M271.634 249.308L239.008 246.788L240.353 242.313L241.085 239.881L272.199 247.059L271.634 249.308Z" fill="#203156"/>
<path d="M269.911 277.077L268.196 262.576L268.304 262.604L268.318 262.542L277.889 273.545C278.479 274.223 278.83 275.014 278.957 275.822C279.2 277.362 278.64 278.972 277.411 280.012C277.095 280.286 276.733 280.515 276.327 280.701C275.708 280.981 275.072 281.111 274.448 281.111C272.228 281.111 270.194 279.469 269.911 277.077Z" fill="#FEF3EC"/>
<path d="M253.99 189.963L249.981 203.947L230.842 200.851L226.358 200.127L226.35 200.125H226.344L179.107 180.598V176.064V171.439L188.978 171.776C195.354 179.68 204.77 185.118 215.674 186.192L253.99 189.963Z" fill="#203156"/>
<path d="M242.915 19.8524C246.463 29.1325 246.285 39.2319 245.901 44.1757L222.728 36.2911C221.437 35.8532 220.62 34.582 220.75 33.226C220.759 33.1271 220.764 33.0311 220.764 32.9378C220.764 31.644 219.908 30.4857 218.643 30.1185L217.841 29.8868C215.052 28.9574 213.275 26.22 213.563 23.2933C213.883 20.0417 216.626 17.6094 219.827 17.6094C220.033 17.6094 220.242 17.6178 220.451 17.6404L242.915 19.8524Z" fill="#FEF3EC"/>
<path d="M222.728 36.2902L245.901 44.1748C245.755 46.1128 245.574 47.2569 245.574 47.2569L238.799 58.8931L226.739 54.3872H226.737L200.151 44.4573V44.4545L197.523 43.4742C194.402 38.7395 193.187 30.2334 193.786 24.154C195.176 10.0601 207.724 -0.239832 221.816 1.15007C233.553 3.84794 239.737 11.5263 242.915 19.8572L220.454 17.6452C220.245 17.6226 220.036 17.6142 219.83 17.6142C216.629 17.6142 213.889 20.0465 213.567 23.2981C213.278 26.2248 215.055 28.965 217.844 29.8916L218.646 30.1233C219.911 30.4877 220.767 31.6488 220.767 32.9426C220.767 33.0387 220.762 33.1319 220.753 33.2308C220.621 34.5811 221.437 35.8552 222.728 36.2902Z" fill="#FEF3EC"/>
<path d="M245.681 99.3477L234.313 113.337L242.898 97.8193C243.797 98.3335 244.721 98.842 245.681 99.3477Z" fill="#203156"/>
<path d="M250.789 283.311L245.108 281.576L229.952 276.949L232.254 269.282L235.11 259.767L235.689 257.841L236.577 254.889L268.194 262.57L269.909 277.071C270.191 279.463 272.225 281.105 274.443 281.105C275.067 281.105 275.703 280.975 276.321 280.695C276.728 280.511 277.09 280.28 277.406 280.006L280.053 285.065L284.52 293.602L250.789 283.311Z" fill="#FEF3EC"/>
<path d="M242.898 97.8261L234.313 113.344L233.186 115.381C231.124 114.494 229.18 113.567 227.344 112.621L228.042 112.135L237.836 94.7412C238.941 95.4644 240.102 96.1848 241.319 96.908C241.833 97.2159 242.359 97.521 242.898 97.8261Z" fill="#FBD3B9"/>
<path d="M238.867 91.9174L237.443 94.1746L237.302 94.3893C221.335 83.8153 217.248 73.8516 217.248 73.8516C217.985 73.9476 218.75 74.0295 219.536 74.1002L218.852 71.6113C218.852 71.6113 224.672 81.3548 238.867 91.9174Z" fill="#F1842E"/>
<path d="M237.836 94.7403C237.658 94.6273 237.48 94.5086 237.304 94.3928L237.446 94.1781L238.869 91.9209C240.096 92.8305 241.381 93.7487 242.734 94.6668L241.319 96.907C240.101 96.1867 238.937 95.4635 237.836 94.7403Z" fill="#FBD3B9"/>
<path d="M240.353 242.312L239.008 246.787L236.579 254.892L235.689 257.841L235.548 257.799L231.672 248.168L240.158 242.253L240.353 242.312Z" fill="#FEF3EC"/>
<path d="M235.11 259.769L234.98 259.729L217.649 264.317C214.813 254.661 209.338 246.141 202.055 239.581L226.61 235.527L226.63 235.635L231.672 248.169L235.548 257.8L235.689 257.842L235.11 259.769Z" fill="#FEF3EC"/>
<path d="M235.11 259.771L232.254 269.285L232.195 269.266L219.392 272.656L202.21 277.201L186.848 281.266L168.83 286.035C166.624 286.62 164.347 285.357 163.674 283.176C163.544 282.758 163.485 282.337 163.485 281.925C163.485 280.046 164.739 278.32 166.655 277.809L185.808 272.743L200.679 268.808L217.649 264.316L234.98 259.729L235.11 259.771Z" fill="#FEF3EC"/>
<path d="M205.479 51.0335C203.402 49.2199 201.606 46.9938 200.151 44.4541L226.737 54.384C223.615 55.7823 220.234 56.3954 216.776 56.0479C216.708 56.0422 216.643 56.0338 216.575 56.0253C216.315 55.997 216.05 55.9631 215.784 55.9208C212.29 55.3897 209.092 53.9207 206.34 51.7483C206.052 51.5194 205.764 51.2793 205.479 51.0335Z" fill="#FEF3EC"/>
<path d="M226.344 200.125H226.35L226.358 200.127L230.842 200.851L231.226 202.142L240.483 233.236L226.613 235.528L202.058 239.581C192.546 231.013 179.952 225.798 166.143 225.798C164.519 225.798 162.912 225.869 161.327 226.01L159.841 216.377L155.567 188.678L226.344 200.125Z" fill="#FEF3EC"/>
<path d="M226.344 200.125L155.567 188.678L136.235 186.528L124.037 185.13H97.5354V176.245H155.567V176.064H179.107V180.599L226.344 200.125Z" fill="#FEF3EC"/>
<path d="M225.606 147.738L180.466 143.292C180.466 143.292 165.962 108.669 197.238 65.918C197.238 65.918 203.179 72.0426 217.247 73.8534C217.247 73.8534 221.335 83.8172 237.302 94.3911C237.477 94.507 237.655 94.6256 237.833 94.7386L228.039 112.132L227.341 112.618C226.236 112.05 225.177 111.471 224.154 110.886C220.516 128.031 224.674 144.43 225.606 147.738Z" fill="#F1842E"/>
<path d="M218.852 71.6127L219.536 74.1016C218.753 74.0309 217.988 73.949 217.248 73.853C203.179 72.0421 197.238 65.9175 197.238 65.9175L200.871 60.1348C200.871 60.1348 201.498 60.632 202.704 61.3693C204.764 62.6321 208.524 64.5983 213.756 65.9769C214.939 66.2876 216.199 66.5701 217.533 66.8102L218.852 71.6127Z" fill="#BF5117"/>
<path d="M219.394 272.659C219.677 274.894 219.824 277.171 219.824 279.484C219.824 309.13 195.792 333.165 166.14 333.165C136.495 333.165 112.46 309.133 112.46 279.484C112.46 251.457 133.933 228.451 161.324 226.013C162.911 225.871 164.519 225.801 166.14 225.801C179.949 225.801 192.543 231.019 202.055 239.584C209.337 246.141 214.812 254.664 217.649 264.32L200.679 268.811C196.128 254.059 182.384 243.338 166.138 243.338C146.173 243.338 129.992 259.52 129.992 279.484C129.992 299.446 146.173 315.63 166.138 315.63C186.102 315.63 202.283 299.446 202.283 279.484C202.283 278.719 202.258 277.959 202.21 277.207L219.394 272.659Z" fill="#203156"/>
<path d="M216.578 56.0289L215.609 60.1393C206.721 58.6844 204.899 53.2067 204.899 53.2067L205.481 51.0371C205.764 51.2829 206.052 51.523 206.346 51.7547C209.097 53.9243 212.295 55.3933 215.79 55.9272C216.052 55.9667 216.315 56.0006 216.578 56.0289Z" fill="#203156"/>
<path d="M215.609 60.1407L214.329 65.5816L213.756 65.9856C208.524 64.6042 204.764 62.6408 202.705 61.378L203.527 58.3157H203.53L204.9 53.2109C204.9 53.2081 206.722 58.6858 215.609 60.1407Z" fill="#FEF3EC"/>
<path d="M202.213 277.204C202.261 277.958 202.286 278.715 202.286 279.481C202.286 299.442 186.105 315.627 166.141 315.627C146.176 315.627 129.995 299.442 129.995 279.481C129.995 259.517 146.176 243.335 166.141 243.335C182.387 243.335 196.131 254.056 200.682 268.808L185.811 272.743C183.011 264.57 175.262 258.694 166.141 258.694C154.663 258.694 145.357 268 145.357 279.481C145.357 290.959 154.663 300.264 166.141 300.264C177.02 300.264 185.947 291.908 186.851 281.266L202.213 277.204Z" fill="#FEF3EC"/>
<path d="M168.833 286.036L186.851 281.267C185.947 291.909 177.02 300.265 166.14 300.265C154.662 300.265 145.357 290.96 145.357 279.482C145.357 268.001 154.662 258.695 166.14 258.695C175.265 258.695 183.011 264.571 185.811 272.744L166.657 277.809C164.742 278.321 163.488 280.047 163.488 281.925C163.488 282.338 163.55 282.759 163.677 283.177C164.352 285.355 166.626 286.62 168.833 286.036Z" fill="#FEF3EC"/>
<path d="M298.969 186.155L290.632 216.165L284.276 240.471L284.205 240.739L281.965 249.313L272.202 247.062L241.085 239.883L239.46 239.508L240.859 234.635L241.209 233.454L249.981 203.949L253.989 189.966L215.674 186.194C204.769 185.121 195.354 179.683 188.978 171.778C183.505 164.995 180.274 156.396 180.274 147.184C180.274 145.898 180.336 144.599 180.463 143.291L225.604 147.738L276.425 152.746C283.759 153.469 289.988 157.108 294.203 162.326C298.376 167.49 300.576 174.202 299.927 181.16C299.777 182.818 299.458 184.488 298.969 186.155Z" fill="#FEF3EC"/>
<path d="M155.567 188.675L159.838 216.374L140.43 207.173L136.235 186.525L155.567 188.675Z" fill="#FEF3EC"/>
<path d="M155.566 176.064V176.245H97.5352H25.7124V77.2227H155.566V176.064Z" fill="#FEF3EC"/>
<path d="M136.235 186.529L140.43 207.177L126.977 200.869L124.036 185.131L136.235 186.529Z" fill="#203156"/>
<path d="M397.019 300.973C385.168 300.973 375.526 291.332 375.526 279.484C375.526 273.904 377.653 268.619 381.518 264.596L382.538 265.573C378.927 269.331 376.939 274.271 376.939 279.484C376.939 290.555 385.948 299.561 397.019 299.561C408.093 299.561 417.099 290.555 417.099 279.484C417.099 268.695 408.663 259.884 397.897 259.423L397.957 258.011C409.483 258.505 418.508 267.935 418.508 279.481C418.514 291.334 408.87 300.973 397.019 300.973Z" fill="#203156"/>
<path d="M397.019 316.332C376.699 316.332 360.167 299.8 360.167 279.48C360.167 268.03 365.354 257.428 374.4 250.388L375.267 251.504C366.569 258.273 361.58 268.471 361.58 279.48C361.58 299.021 377.479 314.92 397.019 314.92C416.56 314.92 432.459 299.021 432.459 279.48C432.459 259.94 416.56 244.04 397.019 244.04C395.214 244.04 393.386 244.179 391.593 244.45L391.381 243.055C393.245 242.772 395.144 242.628 397.019 242.628C417.34 242.628 433.871 259.16 433.871 279.48C433.871 299.8 417.34 316.332 397.019 316.332Z" fill="#203156"/>
<path d="M397.019 333.87C367.029 333.87 342.63 309.474 342.63 279.483C342.63 261.5 351.509 244.696 366.377 234.541L367.173 235.707C352.689 245.6 344.042 261.966 344.042 279.483C344.042 308.694 367.809 332.458 397.019 332.458C426.23 332.458 449.994 308.694 449.994 279.483C449.994 250.273 426.23 226.506 397.019 226.506C392.804 226.506 388.615 227.003 384.564 227.981L384.233 226.608C388.392 225.602 392.697 225.094 397.022 225.094C427.012 225.094 451.409 249.493 451.409 279.483C451.406 309.471 427.01 333.87 397.019 333.87Z" fill="#203156"/>
<path d="M166.141 300.973C154.29 300.973 144.651 291.331 144.651 279.483C144.651 267.632 154.293 257.99 166.141 257.99C175.33 257.99 183.503 263.827 186.481 272.516L185.144 272.974C182.365 264.855 174.726 259.403 166.141 259.403C155.069 259.403 146.063 268.412 146.063 279.483C146.063 290.554 155.069 299.56 166.141 299.56C171.203 299.56 176.039 297.67 179.757 294.241C183.455 290.828 185.724 286.201 186.147 281.209L187.554 281.328C187.099 286.672 184.673 291.625 180.715 295.277C176.737 298.95 171.559 300.973 166.141 300.973Z" fill="#203156"/>
<path d="M166.14 316.332C145.82 316.332 129.288 299.8 129.288 279.48C129.288 259.16 145.82 242.628 166.14 242.628C174.175 242.628 181.811 245.168 188.221 249.973C194.419 254.62 199.086 261.233 201.357 268.598L200.007 269.013C197.823 261.931 193.337 255.572 187.373 251.103C181.209 246.481 173.867 244.04 166.14 244.04C146.6 244.04 130.701 259.94 130.701 279.48C130.701 299.021 146.6 314.92 166.14 314.92C185.681 314.92 201.58 299.021 201.58 279.48C201.58 278.731 201.555 277.983 201.507 277.248L202.916 277.155C202.967 277.921 202.993 278.7 202.993 279.48C202.993 299.8 186.461 316.332 166.14 316.332Z" fill="#203156"/>
<path d="M166.141 333.87C136.15 333.87 111.754 309.474 111.754 279.483C111.754 265.805 116.85 252.734 126.099 242.674C135.294 232.676 147.781 226.509 161.259 225.308C162.861 225.167 164.502 225.094 166.138 225.094C179.604 225.094 192.526 230.054 202.527 239.061C210.03 245.818 215.493 254.482 218.327 264.121L216.971 264.519C214.214 255.132 208.891 246.694 201.58 240.111C191.842 231.34 179.254 226.509 166.138 226.509C164.542 226.509 162.943 226.58 161.383 226.718C148.255 227.888 136.094 233.894 127.139 243.631C118.127 253.428 113.166 266.164 113.166 279.486C113.166 308.697 136.93 332.461 166.141 332.461C195.351 332.461 219.118 308.697 219.118 279.486C219.118 277.243 218.974 274.978 218.694 272.751L220.095 272.574C220.383 274.859 220.53 277.187 220.53 279.486C220.53 309.471 196.131 333.87 166.141 333.87Z" fill="#203156"/>
<path d="M316.561 244.044H315.205V242.631H316.561C319.227 242.631 321.773 241.792 323.923 240.205C326.067 238.62 327.62 236.43 328.414 233.877C331.499 223.969 337.542 210.093 348.828 200.242L349.757 201.307C338.723 210.94 332.793 224.565 329.765 234.298C328.88 237.139 327.152 239.575 324.764 241.34C322.369 243.109 319.533 244.044 316.561 244.044Z" fill="#203156"/>
<path d="M413.732 197.541C412.808 197.541 411.904 197.357 411.045 196.993C389.668 187.973 371.492 187.662 357.02 196.075L356.311 194.854C371.187 186.207 389.787 186.49 411.596 195.693C412.283 195.984 413 196.129 413.735 196.129C416.074 196.129 418.147 194.64 418.913 192.462C406.133 179.789 387.937 173.924 370.151 176.76L367.574 177.17C362.475 177.986 357.415 175.469 354.989 170.904L345.652 153.344C343.16 148.663 337.471 146.801 332.697 149.106L332.081 147.835C337.542 145.197 344.05 147.327 346.898 152.68L356.235 170.24C358.379 174.272 362.842 176.495 367.351 175.774L369.927 175.365C388.301 172.432 407.102 178.566 420.212 191.764L420.5 192.052L420.393 192.445C419.58 195.448 416.842 197.541 413.732 197.541Z" fill="#203156"/>
<path d="M250.746 284.018L245.195 283.685L244.452 281.846L245.763 281.317L246.172 282.329L250.831 282.608L250.746 284.018Z" fill="#203156"/>
<path d="M302.837 287.147L280.013 285.774L280.098 284.364L301.805 285.67L314.851 242.049L316.204 242.453L315.882 243.535L302.837 287.147Z" fill="#203156"/>
<path d="M234.892 258.063L225.974 235.898L227.284 235.373L236.254 257.665V257.801L235.545 257.804L234.892 258.063Z" fill="#203156"/>
<path d="M291.137 215.666L290.115 216.641L316.041 243.814L317.063 242.839L291.137 215.666Z" fill="#203156"/>
<path d="M239.765 241.65L231.278 247.565L232.086 248.724L240.573 242.809L239.765 241.65Z" fill="#203156"/>
<path d="M167.734 286.883C165.607 286.883 163.663 285.51 163.005 283.383C162.858 282.906 162.781 282.414 162.781 281.923C162.781 279.677 164.301 277.702 166.477 277.123L234.802 259.043L235.164 260.407L166.838 278.487C165.282 278.903 164.194 280.312 164.194 281.92C164.194 282.27 164.248 282.62 164.352 282.962C164.917 284.787 166.804 285.835 168.652 285.347L232.017 268.577L232.378 269.942L169.013 286.711C168.584 286.83 168.155 286.883 167.734 286.883Z" fill="#203156"/>
<path d="M289.57 248.727C289.471 248.506 289.339 248.218 289.189 247.93L290.443 247.28C290.607 247.597 290.751 247.907 290.856 248.145L289.57 248.727Z" fill="#203156"/>
<path d="M289.172 247.891C287.887 245.34 286.019 243.057 283.768 241.289C283.66 241.204 283.556 241.122 283.451 241.043L284.299 239.913C284.415 240.001 284.533 240.091 284.646 240.181C287.053 242.071 289.056 244.521 290.435 247.255L289.172 247.891Z" fill="#203156"/>
<path d="M202.171 240.279L201.939 238.887L239.576 232.672L230.164 201.054L231.52 200.65L241.387 233.805L202.171 240.279Z" fill="#203156"/>
<path d="M226.484 199.438L226.259 200.832L249.88 204.651L250.105 203.256L226.484 199.438Z" fill="#203156"/>
<path d="M160.626 226.115L154.719 187.822L226.457 199.427L226.231 200.82L156.411 189.529L162.022 225.9L160.626 226.115Z" fill="#203156"/>
<path d="M159.536 217.015L139.809 207.662L135.351 185.72L155.643 187.977L155.487 189.378L137.119 187.338L141.052 206.687L160.14 215.738L159.536 217.015Z" fill="#203156"/>
<path d="M140.131 207.814L126.35 201.353L123.167 184.318L136.314 185.827L136.156 187.231L124.907 185.94L127.607 200.381L140.73 206.534L140.131 207.814Z" fill="#203156"/>
<path d="M179.107 175.358H155.567V176.771H179.107V175.358Z" fill="#203156"/>
<path d="M124.037 185.836H96.8291V176.064H98.2416V184.424H124.037V185.836Z" fill="#203156"/>
<path d="M226.35 200.832H226.208L226.073 200.781L178.401 181.071V170.712L189.003 171.071L188.955 172.483L179.813 172.172V180.128L226.612 199.473L226.35 200.143V200.832Z" fill="#203156"/>
<path d="M294.613 162.9L293.796 161.747C299.339 157.812 306.342 156.318 313.006 157.645L329.499 160.931L329.222 162.315L312.73 159.03C306.444 157.778 299.842 159.188 294.613 162.9Z" fill="#203156"/>
<path d="M299.964 180.475L299.896 181.886L340.265 183.842L340.333 182.431L299.964 180.475Z" fill="#203156"/>
<path d="M156.273 176.951H25.0061V76.5166H156.27V176.951H156.273ZM26.4186 175.538H154.857V77.9291H26.4186V175.538Z" fill="#203156"/>
<path d="M281.966 250.013C281.912 250.013 281.858 250.007 281.807 249.996L240.927 240.566L239.305 240.19C239.116 240.148 238.955 240.027 238.856 239.86C238.757 239.693 238.732 239.493 238.785 239.306L240.537 233.247L249.309 203.742L253.083 190.578L215.609 186.888C204.866 185.832 195.213 180.62 188.433 172.215C182.721 165.136 179.573 156.243 179.573 147.18C179.573 145.855 179.638 144.522 179.768 143.219C179.808 142.832 180.153 142.547 180.54 142.587L225.68 147.033L276.502 152.042C283.726 152.754 290.209 156.248 294.76 161.881C299.201 167.379 301.289 174.249 300.639 181.227C300.478 182.945 300.147 184.671 299.653 186.352L291.319 216.35L282.652 249.487C282.565 249.804 282.279 250.013 281.966 250.013ZM241.243 239.19L281.454 248.465L289.949 215.98L298.288 185.959C298.76 184.354 299.074 182.719 299.226 181.091C299.842 174.484 297.865 167.975 293.655 162.766C289.345 157.429 283.203 154.118 276.358 153.446L225.536 148.437L181.105 144.061C181.023 145.092 180.98 146.138 180.98 147.18C180.98 155.923 184.014 164.5 189.526 171.331C196.066 179.439 205.377 184.467 215.742 185.487L254.057 189.259C254.266 189.278 254.456 189.391 254.572 189.564C254.69 189.736 254.724 189.953 254.665 190.154L250.656 204.138L241.537 234.834L240.345 238.984L241.243 239.19Z" fill="#203156"/>
<path d="M225.106 148.551C225.106 148.551 225.038 148.336 224.925 147.927C224.035 144.766 219.778 128.104 223.465 110.741L224.846 111.035C221.23 128.073 225.411 144.438 226.287 147.545C226.394 147.927 226.456 148.127 226.456 148.133L225.106 148.551Z" fill="#203156"/>
<path d="M179.813 143.562C179.664 143.204 176.132 134.607 176.415 120.621C176.581 112.422 178.039 104.077 180.748 95.8227C184.133 85.5143 189.486 75.3132 196.664 65.502L197.806 66.3353C190.729 76.0081 185.446 86.0595 182.11 96.2097C179.44 104.323 178.002 112.518 177.83 120.57C177.678 127.734 178.579 133.454 179.361 136.991C180.209 140.828 181.107 142.995 181.116 143.017L179.813 143.562Z" fill="#203156"/>
<path d="M286.206 126.974C265.213 125.909 247.28 122.225 232.906 116.024C230.923 115.171 228.943 114.236 227.022 113.242C225.954 112.691 224.872 112.106 223.807 111.496C210.948 104.134 204.168 95.5573 200.747 89.6615C197.015 83.2318 196.357 78.5932 196.328 78.3983L197.73 78.209C197.735 78.2542 198.396 82.8222 202.012 89.0259C205.349 94.7522 211.962 103.089 224.511 110.273C225.559 110.872 226.621 111.448 227.672 111.988C229.564 112.965 231.517 113.886 233.469 114.728C247.69 120.861 265.459 124.508 286.282 125.562L286.206 126.974Z" fill="#203156"/>
<path d="M289.943 114.807C289.401 114.702 288.864 114.598 288.33 114.488L288.61 113.104C289.141 113.211 289.672 113.315 290.211 113.42L289.943 114.807Z" fill="#203156"/>
<path d="M288.33 114.49C287.575 114.344 286.833 114.188 286.095 114.033L286.383 112.651C287.115 112.804 287.852 112.956 288.601 113.103L288.33 114.49Z" fill="#203156"/>
<path d="M286.076 114.025C270.411 110.725 256.71 105.999 245.348 99.9732C244.371 99.4562 243.427 98.9364 242.546 98.4335C241.981 98.1143 241.461 97.8121 240.955 97.5098C239.723 96.7781 238.543 96.0436 237.446 95.326C237.271 95.213 237.088 95.0944 236.91 94.9757C220.948 84.4046 216.762 74.5341 216.592 74.1188L217.897 73.582C217.937 73.6809 222.126 83.4921 237.689 93.8006C237.862 93.9164 238.037 94.0294 238.212 94.1424C239.297 94.8514 240.461 95.5775 241.675 96.2978C242.173 96.5945 242.687 96.8911 243.243 97.2075C244.113 97.7047 245.043 98.216 246.009 98.7245C257.253 104.688 270.832 109.372 286.367 112.643L286.076 114.025Z" fill="#203156"/>
<path d="M219.535 74.809C219.516 74.809 219.493 74.809 219.473 74.8062C218.674 74.7356 217.897 74.6508 217.159 74.5548C203.012 72.7326 196.983 66.6702 196.735 66.4131C196.509 66.1786 196.469 65.8199 196.644 65.5458L200.277 59.7631C200.385 59.5936 200.557 59.4777 200.758 59.4438C200.955 59.4099 201.159 59.4608 201.317 59.5879C201.323 59.5936 201.933 60.0738 203.08 60.7744C205.249 62.105 208.894 63.9695 213.942 65.3029C215.159 65.6221 216.414 65.8989 217.665 66.1249C217.934 66.173 218.148 66.3707 218.222 66.6335L219.541 71.4331L220.225 73.922C220.287 74.1451 220.233 74.3853 220.086 74.5604C219.942 74.7186 219.742 74.809 219.535 74.809ZM198.15 65.7973C199.692 67.125 205.71 71.6591 217.337 73.1535C217.741 73.2044 218.157 73.2553 218.583 73.3005L216.97 67.4301C215.829 67.2154 214.688 66.9583 213.577 66.6645C208.36 65.2888 204.585 63.3536 202.337 61.975C201.803 61.6501 201.382 61.3677 201.071 61.153L198.15 65.7973Z" fill="#203156"/>
<path d="M228.655 112.477L227.426 111.782L237.5 93.8916L238.732 94.5837L238.452 95.0837L228.655 112.477Z" fill="#203156"/>
<path d="M292.319 130.611C292.071 130.611 291.819 130.6 291.568 130.574C289.042 130.323 286.819 128.837 285.619 126.602C284.904 125.277 284.602 123.777 284.751 122.263C285.164 118.091 288.893 115.034 293.062 115.446C293.896 115.531 294.698 115.743 295.444 116.079L294.862 117.367C294.255 117.093 293.602 116.921 292.921 116.85C289.528 116.514 286.491 119.003 286.155 122.399C286.034 123.63 286.28 124.851 286.862 125.93C287.842 127.752 289.653 128.961 291.709 129.165C292.89 129.283 294.074 129.057 295.13 128.515C297.015 127.552 298.26 125.718 298.469 123.614C298.707 121.209 297.512 118.873 295.424 117.658C295.243 117.551 295.068 117.461 294.885 117.376L295.469 116.091C295.695 116.192 295.918 116.311 296.136 116.438C298.698 117.927 300.167 120.797 299.876 123.752C299.619 126.337 298.088 128.586 295.774 129.772C294.701 130.326 293.517 130.611 292.319 130.611Z" fill="#203156"/>
<path d="M339.669 183.438L310.687 126.506C310.286 125.718 309.489 125.229 308.602 125.229C308.328 125.223 308.054 125.277 307.8 125.37L294.138 130.387L293.649 129.062L307.308 124.045C307.718 123.89 308.164 123.813 308.605 123.813C310.026 123.813 311.306 124.599 311.947 125.864L340.929 182.797L339.669 183.438Z" fill="#203156"/>
<path d="M340.301 183.817H340.298V182.404L340.301 183.817Z" fill="#203156"/>
<path d="M396.462 284.433C393.146 284.433 390.151 282.6 388.648 279.645L339.671 183.434L340.931 182.793L389.908 279.004C391.168 281.481 393.68 283.021 396.462 283.021C397.592 283.021 398.683 282.766 399.705 282.264C403.22 280.535 404.759 276.359 403.211 272.76L383.75 227.572C382.857 225.501 381.201 223.93 379.086 223.15C376.97 222.371 374.69 222.489 372.667 223.484L371.438 224.088C371.094 224.258 370.676 224.119 370.498 223.778L331.761 148.796L316.204 117.933C313.828 113.456 311.198 113.04 309.172 113.179L309.076 111.769C312.673 111.521 315.334 113.272 317.458 117.284L333.018 148.155L371.435 222.515L372.043 222.215C374.419 221.046 377.094 220.907 379.574 221.823C382.055 222.738 384.001 224.58 385.046 227.012L404.508 272.201C406.355 276.492 404.519 281.467 400.33 283.529C399.112 284.128 397.81 284.433 396.462 284.433Z" fill="#203156"/>
<path d="M309.122 124.786L308.057 123.857C308.817 122.987 310.939 116.246 308.549 112.887C308.473 112.786 308.374 112.667 308.249 112.526C308.238 112.514 308.227 112.5 308.218 112.486C308.122 112.365 305.783 109.461 301.407 110.964C301.393 110.969 301.379 110.972 301.365 110.978L288.655 114.478C288.593 114.495 288.531 114.503 288.469 114.503L288.466 113.791L288.28 113.116L300.967 109.622C303.744 108.675 305.859 109.257 307.148 109.913C308.45 110.576 309.187 111.447 309.314 111.605C309.461 111.771 309.58 111.913 309.685 112.057C312.597 116.139 310.185 123.571 309.122 124.786Z" fill="#203156"/>
<path d="M242.272 97.4922L232.552 115.046L233.787 115.73L243.507 98.1764L242.272 97.4922Z" fill="#203156"/>
<path d="M204.21 58.4927L202.845 58.1254L204.828 50.7324L206.19 51.111L206.159 51.2211L204.21 58.4927Z" fill="#203156"/>
<path d="M202.847 58.1211L202.026 61.1826L203.39 61.5485L204.211 58.4869L202.847 58.1211Z" fill="#203156"/>
<path d="M215.018 65.743L213.642 65.4181L216.046 55.1973L217.422 55.5165L215.018 65.743Z" fill="#203156"/>
<path d="M218.699 56.8472C218.036 56.8472 217.372 56.8133 216.708 56.7483C216.674 56.7455 216.637 56.7399 216.598 56.737L216.516 56.7285C216.205 56.6946 215.934 56.6608 215.677 56.6184C212.145 56.0816 208.857 54.6296 205.908 52.3046C205.608 52.0701 205.309 51.8215 205.018 51.5673C202.885 49.7028 201.043 47.4287 199.54 44.8071L200.766 44.1064C202.19 46.5924 203.933 48.7451 205.945 50.5051C206.219 50.7424 206.501 50.9768 206.781 51.2C209.532 53.3724 212.6 54.7256 215.894 55.2285C216.134 55.268 216.38 55.2991 216.651 55.3302C216.68 55.333 216.719 55.3358 216.759 55.3415L216.841 55.3499C220.112 55.6776 223.341 55.1381 226.448 53.7453L227.025 55.0335C224.324 56.2398 221.53 56.8472 218.699 56.8472Z" fill="#203156"/>
<path d="M239.11 59.7623L197.06 44.0525L196.933 43.8604C193.619 38.8347 192.486 30.1054 193.082 24.0825C193.771 17.0794 197.15 10.7627 202.588 6.29634C208.029 1.83284 214.883 -0.246356 221.883 0.442944L221.971 0.457065C232.372 2.84984 239.638 9.28801 243.573 19.5993C247.147 28.95 247.006 39.0437 246.602 44.2276C246.455 46.1684 246.274 47.3182 246.266 47.3662L246.246 47.4961L246.178 47.6091L239.11 59.7623ZM226.863 53.6801L226.985 53.7253L238.485 58.0221L244.89 47.0215C244.941 46.6741 245.076 45.6429 245.192 44.1231C245.585 39.055 245.729 29.1986 242.251 20.1049C238.5 10.2768 231.587 4.13239 221.697 1.84414C215.083 1.20287 208.617 3.17189 203.481 7.38679C198.334 11.613 195.139 17.5907 194.483 24.2181C193.935 29.7777 194.98 38.151 197.983 42.8886L226.863 53.6801Z" fill="#203156"/>
<path d="M245.673 44.8443L222.499 36.9597C220.892 36.4145 219.883 34.8523 220.047 33.1573C220.053 33.0839 220.058 33.0104 220.058 32.9369C220.058 31.951 219.397 31.0696 218.448 30.7956L217.617 30.5555C214.493 29.5159 212.538 26.4988 212.863 23.2218C213.216 19.6171 216.211 16.8994 219.827 16.8994C220.067 16.8994 220.301 16.9107 220.522 16.9333L242.98 19.1453L242.842 20.5521L220.38 18.3402C220.205 18.3232 220.019 18.3119 219.827 18.3119C216.939 18.3119 214.55 20.4815 214.267 23.3602C214.01 25.9733 215.564 28.3746 218.05 29.2108L218.838 29.4368C220.389 29.8831 221.471 31.3239 221.471 32.9341C221.471 33.0499 221.462 33.1686 221.451 33.2901C221.349 34.3297 221.965 35.2873 222.951 35.6207L246.125 43.5053L245.673 44.8443Z" fill="#203156"/>
<path d="M201.521 23.4664L200.122 23.2602C200.145 23.1105 200.69 19.5368 202.984 15.7203C205.117 12.1721 209.219 7.76505 216.649 6.90625L216.81 8.31028C203.673 9.83013 201.54 23.3308 201.521 23.4664Z" fill="#203156"/>
<path d="M228.814 24.2228L225.82 29.1699L227.028 29.9013L230.023 24.9542L228.814 24.2228Z" fill="#203156"/>
<path d="M238.081 25.1435L232.71 33.959L233.916 34.6939L239.287 25.8785L238.081 25.1435Z" fill="#203156"/>
<path d="M286.24 114.049L286.062 114.004L286.056 114.023C269.62 110.108 254.911 103.791 242.334 95.2513C241.06 94.3897 239.788 93.4857 238.446 92.4884C231.059 86.9938 225.971 81.7224 222.999 78.2674C219.768 74.5073 218.304 72.0778 218.245 71.9761L219.457 71.2529C219.513 71.349 225.386 81.0133 239.288 91.3556C240.613 92.3387 241.87 93.2314 243.127 94.0818C255.563 102.526 270.118 108.772 286.384 112.648C286.44 112.662 286.497 112.682 286.548 112.71L286.24 113.3V114.049Z" fill="#203156"/>
<path d="M241.915 97.2814L240.72 96.5271L242.322 93.9902L243.517 94.7473L241.915 97.2814Z" fill="#203156"/>
<path d="M238.042 94.5499L236.847 93.7985L238.452 91.2588L239.641 92.0187L238.042 94.5499Z" fill="#203156"/>
<path d="M35.08 124.326H33.6675V86.4367C33.6675 86.0469 33.9839 85.7305 34.3737 85.7305H44.4844V87.143H35.08V124.326Z" fill="#203156"/>
<path d="M271.504 246.9L267.705 262.067L269.075 262.411L272.874 247.243L271.504 246.9Z" fill="#203156"/>
<path d="M267.693 262.051L267.629 262.32L269.003 262.648L269.067 262.379L267.693 262.051Z" fill="#203156"/>
<path d="M268.988 262.772L267.618 262.428L267.637 262.349L269.019 262.64L268.988 262.772Z" fill="#203156"/>
<path d="M284.522 294.313C284.454 294.313 284.383 294.302 284.315 294.282L229.745 277.626C229.372 277.513 229.163 277.12 229.276 276.747L240.497 239.378L241.85 239.782L230.833 276.479L283.115 292.437L276.784 280.335L278.036 279.679L285.149 293.276C285.282 293.528 285.248 293.835 285.067 294.053C284.929 294.222 284.728 294.313 284.522 294.313Z" fill="#203156"/>
<path d="M268.128 263.287L268.018 263.259L236.245 255.541L236.57 254.165L236.74 254.205L268.479 261.92L268.128 263.287Z" fill="#203156"/>
<path d="M279.431 276.439L278.872 275.142C279.417 274.908 279.951 274.648 280.459 274.374C287.033 270.84 291.115 264.015 291.115 256.559C291.115 253.833 290.584 251.195 289.536 248.712C289.423 248.437 289.299 248.169 289.177 247.909C289.175 247.904 289.163 247.881 289.16 247.873L289.175 247.904C289.081 247.709 288.999 247.539 288.912 247.37C287.655 244.918 285.94 242.776 283.821 241.011L284.725 239.926C286.994 241.816 288.824 244.104 290.172 246.728C290.265 246.912 290.353 247.093 290.44 247.274C290.443 247.282 290.457 247.308 290.46 247.316C290.573 247.559 290.709 247.856 290.839 248.166C291.96 250.819 292.528 253.644 292.528 256.559C292.528 264.534 288.16 271.837 281.129 275.617C280.587 275.908 280.016 276.185 279.431 276.439Z" fill="#203156"/>
<path d="M290.215 278.873C286.618 278.873 283.214 277.726 280.367 275.556L281.223 274.432C283.822 276.412 286.929 277.46 290.215 277.46C298.41 277.46 305.077 270.793 305.077 262.598C305.077 254.406 298.41 247.741 290.215 247.741C290 247.741 289.785 247.747 289.573 247.756L289.514 246.343C289.746 246.335 289.98 246.326 290.215 246.326C299.187 246.326 306.489 253.626 306.489 262.595C306.489 271.573 299.19 278.873 290.215 278.873Z" fill="#203156"/>
<path d="M239.045 246.082L238.936 247.49L271.56 250.01L271.669 248.602L239.045 246.082Z" fill="#203156"/>
<path d="M274.445 281.814C271.772 281.814 269.524 279.812 269.21 277.159L267.481 262.539C267.481 262.537 267.481 262.534 267.481 262.531L267.473 262.452C267.439 262.144 267.608 261.847 267.894 261.723C268.179 261.599 268.512 261.675 268.713 261.912L268.846 262.065L278.425 273.077C279.081 273.831 279.507 274.741 279.657 275.71C279.942 277.52 279.256 279.374 277.869 280.549C277.507 280.862 277.086 281.128 276.62 281.34C275.922 281.653 275.194 281.814 274.445 281.814ZM269.142 264.562L270.611 276.992C270.84 278.936 272.49 280.402 274.445 280.402C274.99 280.402 275.524 280.286 276.033 280.057C276.374 279.902 276.682 279.707 276.948 279.478C277.968 278.617 278.468 277.261 278.259 275.933C278.148 275.227 277.838 274.56 277.357 274.009L269.142 264.562Z" fill="#203156"/>
<path d="M283.435 267.646C282.912 267.646 282.384 267.567 281.867 267.405L268.151 263.179C268.137 263.176 268.126 263.171 268.112 263.168L267.97 263.123H267.968L267.713 263.044C267.42 262.95 267.219 262.676 267.219 262.368C267.219 262.058 267.422 261.787 267.719 261.696L268.191 261.552C268.202 261.549 268.213 261.546 268.225 261.544L281.867 257.334C283.477 256.837 285.18 257.125 286.539 258.12C287.895 259.114 288.681 260.651 288.695 262.332V262.371C288.695 264.063 287.915 265.609 286.553 266.614C285.624 267.292 284.542 267.646 283.435 267.646ZM270.321 262.368L282.282 266.055C283.466 266.42 284.714 266.208 285.709 265.473C286.706 264.739 287.276 263.606 287.276 262.368V262.335C287.268 261.109 286.695 259.984 285.7 259.255C284.706 258.526 283.46 258.317 282.279 258.679L270.321 262.368Z" fill="#203156"/>
<path d="M201.272 60.7157L200.473 59.5518L203.125 57.7268C203.244 57.6449 203.382 57.6025 203.526 57.6025L203.529 58.3116L203.928 58.8907L201.272 60.7157Z" fill="#203156"/>
<path d="M215.496 60.8339C206.292 59.3281 204.309 53.6668 204.229 53.4267L205.569 52.9775C205.639 53.1866 207.413 58.0795 215.724 59.4383L215.496 60.8339Z" fill="#203156"/>
<path d="M295.5 117.701L294.85 117.365L289.754 114.738L290.401 113.483L295.475 116.099L295.503 116.113L296.133 116.438L295.5 117.701Z" fill="#203156"/>
<path d="M245.13 98.9092L233.762 112.899L234.859 113.79L246.226 99.7999L245.13 98.9092Z" fill="#203156"/>
<path d="M480.396 332.454H0.375V333.867H480.396V332.454Z" fill="#203156"/>
</svg>
